<?xml version="1.0" encoding="UTF-8" standalone="no"?>
<!-- Generator: Adobe Illustrator 22.0.1, SVG Export Plug-In . SVG Version: 6.00 Build 0)  -->

<svg
   xmlns:dc="http://purl.org/dc/elements/1.1/"
   xmlns:cc="http://creativecommons.org/ns#"
   xmlns:rdf="http://www.w3.org/1999/02/22-rdf-syntax-ns#"
   xmlns:svg="http://www.w3.org/2000/svg"
   xmlns="http://www.w3.org/2000/svg"
   xmlns:sodipodi="http://sodipodi.sourceforge.net/DTD/sodipodi-0.dtd"
   xmlns:inkscape="http://www.inkscape.org/namespaces/inkscape"
   version="1.1"
   id="Layer_1"
   x="0px"
   y="0px"
   viewBox="0 0 30 30"
   style="enable-background:new 0 0 30 30;"
   xml:space="preserve"
   sodipodi:docname="wi-direction-down.svg"
   inkscape:version="0.92.5 (2060ec1f9f, 2020-04-08)"><metadata
   id="metadata9"><rdf:RDF><cc:Work
       rdf:about=""><dc:format>image/svg+xml</dc:format><dc:type
         rdf:resource="http://purl.org/dc/dcmitype/StillImage" /><dc:title></dc:title></cc:Work></rdf:RDF></metadata><defs
   id="defs7" /><sodipodi:namedview
   pagecolor="#ffffff"
   bordercolor="#666666"
   borderopacity="1"
   objecttolerance="10"
   gridtolerance="10"
   guidetolerance="10"
   inkscape:pageopacity="0"
   inkscape:pageshadow="2"
   inkscape:window-width="1918"
   inkscape:window-height="1014"
   id="namedview5"
   showgrid="false"
   inkscape:zoom="7.8666667"
   inkscape:cx="15.254237"
   inkscape:cy="15"
   inkscape:window-x="1920"
   inkscape:window-y="0"
   inkscape:window-maximized="1"
   inkscape:current-layer="Layer_1" />
<path
   d="m 9.95,16.582312 c -0.01,-0.35 0.1,-0.65 0.34,-0.9 0.24,-0.25 0.53,-0.37 0.89,-0.36 0.34,-0.02 0.63,0.1 0.88,0.37 l 1.66,1.64 V 7.0323123 c -0.01,-0.35 0.11,-0.64 0.36,-0.88 0.25,-0.24 0.55,-0.35 0.92,-0.34 0.34,-0.02 0.64,0.09 0.89,0.32 0.25,0.23 0.39,0.53 0.4,0.88 V 17.312312 l 1.64,-1.64 c 0.23,-0.24 0.53,-0.37 0.88,-0.37 0.36,0 0.66,0.12 0.9,0.36 0.24,0.24 0.36,0.53 0.36,0.89 -0.02,0.36 -0.15,0.64 -0.4,0.85 l -3.74,3.84 c -0.24,0.23 -0.55,0.37 -0.92,0.4 -0.37,-0.02 -0.68,-0.16 -0.92,-0.41 l -3.75,-3.81 c -0.26,-0.22 -0.39,-0.5 -0.39,-0.84 z"
   id="path2"
   inkscape:connector-curvature="0" />
</svg>