<?xml version="1.0" encoding="UTF-8" standalone="no"?>
<!-- Generator: Adobe Illustrator 22.0.1, SVG Export Plug-In . SVG Version: 6.00 Build 0)  -->

<svg
   xmlns:dc="http://purl.org/dc/elements/1.1/"
   xmlns:cc="http://creativecommons.org/ns#"
   xmlns:rdf="http://www.w3.org/1999/02/22-rdf-syntax-ns#"
   xmlns:svg="http://www.w3.org/2000/svg"
   xmlns="http://www.w3.org/2000/svg"
   xmlns:sodipodi="http://sodipodi.sourceforge.net/DTD/sodipodi-0.dtd"
   xmlns:inkscape="http://www.inkscape.org/namespaces/inkscape"
   version="1.1"
   id="Layer_1"
   x="0px"
   y="0px"
   viewBox="0 0 30 30"
   style="enable-background:new 0 0 30 30;"
   xml:space="preserve"
   sodipodi:docname="wi-mist.svg"
   inkscape:export-filename="/tmp/mist.png"
   inkscape:export-xdpi="195.41"
   inkscape:export-ydpi="195.41"
   inkscape:version="0.92.5 (2060ec1f9f, 2020-04-08)"><metadata
   id="metadata9"><rdf:RDF><cc:Work
       rdf:about=""><dc:format>image/svg+xml</dc:format><dc:type
         rdf:resource="http://purl.org/dc/dcmitype/StillImage" /><dc:title></dc:title></cc:Work></rdf:RDF></metadata><defs
   id="defs7"><mask
     maskUnits="userSpaceOnUse"
     id="mask4426"><path
       style="color:#000000;font-style:normal;font-variant:normal;font-weight:normal;font-stretch:normal;font-size:medium;line-height:normal;font-family:sans-serif;font-variant-ligatures:normal;font-variant-position:normal;font-variant-caps:normal;font-variant-numeric:normal;font-variant-alternates:normal;font-feature-settings:normal;text-indent:0;text-align:start;text-decoration:none;text-decoration-line:none;text-decoration-style:solid;text-decoration-color:#000000;letter-spacing:normal;word-spacing:normal;text-transform:none;writing-mode:lr-tb;direction:ltr;text-orientation:mixed;dominant-baseline:auto;baseline-shift:baseline;text-anchor:start;white-space:normal;shape-padding:0;clip-rule:nonzero;display:inline;overflow:visible;visibility:visible;opacity:1;isolation:auto;mix-blend-mode:normal;color-interpolation:sRGB;color-interpolation-filters:linearRGB;solid-color:#000000;solid-opacity:1;vector-effect:none;fill:#ff0000;fill-opacity:1;fill-rule:nonzero;stroke:none;stroke-width:0.91049093;stroke-linecap:butt;stroke-linejoin:miter;stroke-miterlimit:4;stroke-dasharray:none;stroke-dashoffset:0;stroke-opacity:1;color-rendering:auto;image-rendering:auto;shape-rendering:auto;text-rendering:auto;enable-background:accumulate"
       d="m 2.0354135,3.2808001 c 1.2551123,0 2.4049647,0.482554 3.3775017,1.429687 0.9048476,0.881212 1.4983656,2.037081 1.8020899,3.382815 0.9019154,0.307459 1.6846446,0.895175 2.2813518,1.794921 0.6502061,0.9804129 0.9860491,2.1284639 0.9860491,3.3828119 0,1.455969 -0.439453,2.753474 -1.2774918,3.787109 -3.199e-4,3.98e-4 -0.00133,-3.97e-4 -0.00166,0 -3.275e-4,4.04e-4 3.282e-4,0.0015 0,0.002 -0.8364083,1.040526 -1.8912556,1.614629 -3.0957736,1.679688 h -0.00972 -9.3099884 -0.00647 c -0.7884618,-0.0328 -1.5346789,-0.297944 -2.2003957,-0.792969 -0.6617816,-0.4921 -1.1970338,-1.160392 -1.5786495,-1.982422 -0.3823294,-0.823564 -0.5747911,-1.733814 -0.5747911,-2.693359 0,-0.985185 0.2122622,-1.900894 0.6104113,-2.730468 0.4006204,-0.8347089 0.9636472,-1.5029579 1.6547785,-1.9746559 0.6898695,-0.470837 1.4547572,-0.714845 2.2683988,-0.714845 h 0.00323 c 0.3190963,-1.260608 0.8847162,-2.357224 1.7551406,-3.183595 0.96211525,-0.913421 2.08586023,-1.386718 3.3159751,-1.386718 z"
       id="path4428"
       inkscape:connector-curvature="0"
       sodipodi:nodetypes="sscsscccccccccscsscss"
       mask="none"
       clip-path="none" /></mask></defs><sodipodi:namedview
   pagecolor="#ffffff"
   bordercolor="#666666"
   borderopacity="1"
   objecttolerance="10"
   gridtolerance="10"
   guidetolerance="10"
   inkscape:pageopacity="0"
   inkscape:pageshadow="2"
   inkscape:window-width="1918"
   inkscape:window-height="1014"
   id="namedview5"
   showgrid="false"
   inkscape:zoom="22.627417"
   inkscape:cx="11.434065"
   inkscape:cy="12.795707"
   inkscape:window-x="0"
   inkscape:window-y="0"
   inkscape:window-maximized="1"
   inkscape:current-layer="Layer_1" />

<g
   id="g4393"
   transform="matrix(-1.2062817,0,0,1,15.899983,2.8137139)"
   clip-path="none"
   mask="url(#mask4426)"><path
     style="stroke-width:0.70045412"
     sodipodi:nodetypes="scsssscsscs"
     id="path4373"
     d="m -7.8514362,3.4935085 c 0,-0.1265768 0.083733,-0.2320575 0.2418742,-0.3164422 0.1395265,-0.079109 0.3256012,-0.1213027 0.5488683,-0.1213027 H 10.307738 c 0.213964,0 0.390718,0.042192 0.539567,0.1265768 0.148837,0.084384 0.213962,0.1845916 0.213962,0.3111683 0,0.1265768 -0.07444,0.2320574 -0.213962,0.3164422 -0.148859,0.089658 -0.325603,0.131851 -0.539567,0.131851 H -7.0606937 c -0.2232671,0 -0.4093242,-0.042192 -0.5581714,-0.131851 -0.1581501,-0.089658 -0.2325711,-0.1951396 -0.2325711,-0.3164424 z"
     inkscape:connector-curvature="0" /><path
     style="stroke-width:0.70045412"
     sodipodi:nodetypes="scsssscsscs"
     id="path4375"
     d="m -7.8514364,18.351827 c 0,-0.126577 0.08373,-0.232058 0.241874,-0.316443 0.139527,-0.07911 0.325601,-0.121302 0.5488685,-0.121302 H 10.307738 c 0.213964,0 0.390718,0.04219 0.539568,0.126576 0.148836,0.08438 0.213961,0.184592 0.213961,0.311169 0,0.126577 -0.07443,0.232057 -0.213961,0.316442 -0.14886,0.08966 -0.325604,0.131851 -0.539568,0.131851 H -7.0606939 c -0.2232675,0 -0.4093245,-0.04219 -0.5581715,-0.131851 -0.15815,-0.08966 -0.232571,-0.19514 -0.232571,-0.316442 z"
     inkscape:connector-curvature="0" /><path
     style="stroke-width:0.70045412"
     sodipodi:nodetypes="scsssscsscs"
     id="path4377"
     d="m -7.8514368,16.700902 c 0,-0.126577 0.08373,-0.232058 0.241874,-0.316443 0.139527,-0.07911 0.325601,-0.121302 0.548869,-0.121302 H 10.307738 c 0.213964,0 0.390718,0.04219 0.539568,0.126576 0.148836,0.08438 0.213961,0.184592 0.213961,0.311169 0,0.126577 -0.07443,0.232057 -0.213961,0.316442 -0.14886,0.08966 -0.325604,0.131851 -0.539568,0.131851 H -7.0606938 c -0.223268,0 -0.409325,-0.04219 -0.558172,-0.131851 -0.15815,-0.08966 -0.232571,-0.19514 -0.232571,-0.316442 z"
     inkscape:connector-curvature="0" /><path
     style="stroke-width:0.70045412"
     sodipodi:nodetypes="scsssscsscs"
     id="path4379"
     d="m -7.8514364,15.049978 c 0,-0.126577 0.08373,-0.232058 0.241874,-0.316443 0.139527,-0.07911 0.325601,-0.121302 0.548868,-0.121302 H 10.307738 c 0.213964,0 0.390718,0.04219 0.539568,0.126576 0.148836,0.08438 0.213961,0.184592 0.213961,0.311169 0,0.126577 -0.07443,0.232057 -0.213961,0.316442 -0.14886,0.08966 -0.325604,0.131851 -0.539568,0.131851 H -7.0606944 c -0.223267,0 -0.409324,-0.04219 -0.558171,-0.131851 -0.15815,-0.08966 -0.232571,-0.19514 -0.232571,-0.316442 z"
     inkscape:connector-curvature="0" /><path
     style="stroke-width:0.70045412"
     sodipodi:nodetypes="scsssscsscs"
     id="path4381"
     d="m -7.8514361,13.399053 c 0,-0.126577 0.08373,-0.232058 0.241874,-0.316443 0.139527,-0.07911 0.325601,-0.121302 0.548868,-0.121302 H 10.307738 c 0.213964,0 0.390718,0.04219 0.539568,0.126576 0.148836,0.08438 0.213961,0.184592 0.213961,0.311169 0,0.126577 -0.07443,0.232057 -0.213961,0.316442 -0.14886,0.08966 -0.325604,0.131851 -0.539568,0.131851 H -7.0606941 c -0.223267,0 -0.409324,-0.04219 -0.558171,-0.131851 -0.15815,-0.08966 -0.232571,-0.19514 -0.232571,-0.316442 z"
     inkscape:connector-curvature="0" /><path
     style="stroke-width:0.70045412"
     sodipodi:nodetypes="scsssscsscs"
     id="path4383"
     d="m -7.8514359,11.748128 c 0,-0.126577 0.08373,-0.232058 0.241874,-0.316443 0.139527,-0.07911 0.325601,-0.121302 0.548868,-0.121302 H 10.307738 c 0.213964,0 0.390718,0.04219 0.539568,0.126576 0.148836,0.08438 0.213961,0.184592 0.213961,0.311169 0,0.126577 -0.07443,0.232057 -0.213961,0.316442 -0.14886,0.08966 -0.325604,0.131851 -0.539568,0.131851 H -7.0606939 c -0.223267,0 -0.409324,-0.04219 -0.558171,-0.131851 -0.15815,-0.08966 -0.232571,-0.19514 -0.232571,-0.316442 z"
     inkscape:connector-curvature="0" /><path
     style="stroke-width:0.70045412"
     sodipodi:nodetypes="scsssscsscs"
     id="path4385"
     d="m -7.8514368,8.4462798 c 0,-0.126577 0.08373,-0.232058 0.241874,-0.316443 0.139527,-0.07911 0.325601,-0.121302 0.548869,-0.121302 H 10.307738 c 0.213964,0 0.390718,0.04219 0.539568,0.126576 0.148836,0.08438 0.213961,0.184592 0.213961,0.311169 0,0.126577 -0.07443,0.232057 -0.213961,0.316442 -0.14886,0.08966 -0.325604,0.131851 -0.539568,0.131851 H -7.0606938 c -0.223268,0 -0.409325,-0.04219 -0.558172,-0.131851 -0.15815,-0.08966 -0.232571,-0.19514 -0.232571,-0.316442 z"
     inkscape:connector-curvature="0" /><path
     style="stroke-width:0.70045412"
     sodipodi:nodetypes="scsssscsscs"
     id="path4387"
     d="m -7.8514365,10.097204 c 0,-0.1265775 0.08373,-0.2320585 0.241874,-0.3164435 0.139527,-0.07911 0.325601,-0.121302 0.548869,-0.121302 H 10.307738 c 0.213964,0 0.390718,0.04219 0.539568,0.126576 0.148836,0.08438 0.213961,0.184592 0.213961,0.3111695 0,0.126577 -0.07443,0.232057 -0.213961,0.316442 -0.14886,0.08966 -0.325604,0.131851 -0.539568,0.131851 H -7.0606935 c -0.223268,0 -0.409325,-0.04219 -0.558172,-0.131851 -0.15815,-0.08966 -0.232571,-0.19514 -0.232571,-0.316442 z"
     inkscape:connector-curvature="0" /><path
     style="stroke-width:0.70045412"
     sodipodi:nodetypes="scsssscsscs"
     id="path4389"
     d="m -7.8514366,6.7953561 c 0,-0.126577 0.08373,-0.232058 0.241874,-0.316443 0.1395272,-0.07911 0.3256012,-0.121302 0.5488687,-0.121302 H 10.307738 c 0.213964,0 0.390718,0.04219 0.539568,0.126576 0.148836,0.08438 0.213961,0.184592 0.213961,0.311169 0,0.126577 -0.07443,0.232057 -0.213961,0.316442 -0.14886,0.08966 -0.325604,0.131851 -0.539568,0.131851 H -7.0606939 c -0.2232675,0 -0.4093245,-0.04219 -0.5581717,-0.131851 -0.15815,-0.08966 -0.232571,-0.19514 -0.232571,-0.316442 z"
     inkscape:connector-curvature="0" /><path
     style="stroke-width:0.70045412"
     sodipodi:nodetypes="scsssscsscs"
     id="path4391"
     d="m -7.8514364,5.1444323 c 0,-0.126577 0.08373,-0.232058 0.241874,-0.316443 0.139527,-0.07911 0.325601,-0.121302 0.5488685,-0.121302 H 10.307738 c 0.213964,0 0.390718,0.04219 0.539568,0.126576 0.148836,0.08438 0.213961,0.184592 0.213961,0.311169 0,0.126577 -0.07443,0.232057 -0.213961,0.316442 -0.14886,0.08966 -0.325604,0.131851 -0.539568,0.131851 H -7.0606939 c -0.2232675,0 -0.4093245,-0.04219 -0.5581715,-0.131851 -0.15815,-0.08966 -0.232571,-0.19514 -0.232571,-0.316442 z"
     inkscape:connector-curvature="0" /></g></svg>