<?xml version="1.0" encoding="UTF-8" standalone="no"?>
<!-- Generator: Adobe Illustrator 22.0.1, SVG Export Plug-In . SVG Version: 6.00 Build 0)  -->

<svg
   xmlns:dc="http://purl.org/dc/elements/1.1/"
   xmlns:cc="http://creativecommons.org/ns#"
   xmlns:rdf="http://www.w3.org/1999/02/22-rdf-syntax-ns#"
   xmlns:svg="http://www.w3.org/2000/svg"
   xmlns="http://www.w3.org/2000/svg"
   xmlns:sodipodi="http://sodipodi.sourceforge.net/DTD/sodipodi-0.dtd"
   xmlns:inkscape="http://www.inkscape.org/namespaces/inkscape"
   version="1.1"
   id="Layer_1"
   x="0px"
   y="0px"
   viewBox="0 0 30 30"
   style="enable-background:new 0 0 30 30;"
   xml:space="preserve"
   sodipodi:docname="6-fog.svg"
   inkscape:export-filename="/tmp/mist.png"
   inkscape:export-xdpi="195.41"
   inkscape:export-ydpi="195.41"
   inkscape:version="0.92.5 (2060ec1f9f, 2020-04-08)"><metadata
   id="metadata9"><rdf:RDF><cc:Work
       rdf:about=""><dc:format>image/svg+xml</dc:format><dc:type
         rdf:resource="http://purl.org/dc/dcmitype/StillImage" /><dc:title /></cc:Work></rdf:RDF></metadata><defs
   id="defs7"><mask
     maskUnits="userSpaceOnUse"
     id="mask4426"><path
       style="color:#000000;font-style:normal;font-variant:normal;font-weight:normal;font-stretch:normal;font-size:medium;line-height:normal;font-family:sans-serif;font-variant-ligatures:normal;font-variant-position:normal;font-variant-caps:normal;font-variant-numeric:normal;font-variant-alternates:normal;font-feature-settings:normal;text-indent:0;text-align:start;text-decoration:none;text-decoration-line:none;text-decoration-style:solid;text-decoration-color:#000000;letter-spacing:normal;word-spacing:normal;text-transform:none;writing-mode:lr-tb;direction:ltr;text-orientation:mixed;dominant-baseline:auto;baseline-shift:baseline;text-anchor:start;white-space:normal;shape-padding:0;clip-rule:nonzero;display:inline;overflow:visible;visibility:visible;opacity:1;isolation:auto;mix-blend-mode:normal;color-interpolation:sRGB;color-interpolation-filters:linearRGB;solid-color:#000000;solid-opacity:1;vector-effect:none;fill:#ff0000;fill-opacity:1;fill-rule:nonzero;stroke:none;stroke-width:0.91049093;stroke-linecap:butt;stroke-linejoin:miter;stroke-miterlimit:4;stroke-dasharray:none;stroke-dashoffset:0;stroke-opacity:1;color-rendering:auto;image-rendering:auto;shape-rendering:auto;text-rendering:auto;enable-background:accumulate"
       d="m 2.0354135,3.2808001 c 1.2551123,0 2.4049647,0.482554 3.3775017,1.429687 0.9048476,0.881212 1.4983656,2.037081 1.8020899,3.382815 0.9019154,0.307459 1.6846446,0.895175 2.2813518,1.794921 0.6502061,0.9804129 0.9860491,2.1284639 0.9860491,3.3828119 0,1.455969 -0.439453,2.753474 -1.2774918,3.787109 -3.199e-4,3.98e-4 -0.00133,-3.97e-4 -0.00166,0 -3.275e-4,4.04e-4 3.282e-4,0.0015 0,0.002 -0.8364083,1.040526 -1.8912556,1.614629 -3.0957736,1.679688 h -0.00972 -9.3099884 -0.00647 c -0.7884618,-0.0328 -1.5346789,-0.297944 -2.2003957,-0.792969 -0.6617816,-0.4921 -1.1970338,-1.160392 -1.5786495,-1.982422 -0.3823294,-0.823564 -0.5747911,-1.733814 -0.5747911,-2.693359 0,-0.985185 0.2122622,-1.900894 0.6104113,-2.730468 0.4006204,-0.8347089 0.9636472,-1.5029579 1.6547785,-1.9746559 0.6898695,-0.470837 1.4547572,-0.714845 2.2683988,-0.714845 h 0.00323 c 0.3190963,-1.260608 0.8847162,-2.357224 1.7551406,-3.183595 0.96211525,-0.913421 2.08586023,-1.386718 3.3159751,-1.386718 z"
       id="path4428"
       inkscape:connector-curvature="0"
       sodipodi:nodetypes="sscsscccccccccscsscss"
       mask="none"
       clip-path="none" /></mask></defs><sodipodi:namedview
   pagecolor="#ffffff"
   bordercolor="#666666"
   borderopacity="1"
   objecttolerance="10"
   gridtolerance="10"
   guidetolerance="10"
   inkscape:pageopacity="0"
   inkscape:pageshadow="2"
   inkscape:window-width="1918"
   inkscape:window-height="1014"
   id="namedview5"
   showgrid="false"
   inkscape:zoom="22.627417"
   inkscape:cx="26.272878"
   inkscape:cy="16.128844"
   inkscape:window-x="1920"
   inkscape:window-y="0"
   inkscape:window-maximized="1"
   inkscape:current-layer="Layer_1" />

<g
   id="g4393"
   transform="matrix(-1.2062817,0,0,1,15.899983,2.8137139)"
   clip-path="none"
   mask="url(#mask4426)"
   style="fill:#4d4d4d"><path
     style="fill:#4d4d4d;stroke-width:0.70045412"
     sodipodi:nodetypes="scsssscsscs"
     id="path4373"
     d="m -7.8514362,3.4935085 c 0,-0.1265768 0.083733,-0.2320575 0.2418742,-0.3164422 0.1395265,-0.079109 0.3256012,-0.1213027 0.5488683,-0.1213027 H 10.307738 c 0.213964,0 0.390718,0.042192 0.539567,0.1265768 0.148837,0.084384 0.213962,0.1845916 0.213962,0.3111683 0,0.1265768 -0.07444,0.2320574 -0.213962,0.3164422 -0.148859,0.089658 -0.325603,0.131851 -0.539567,0.131851 H -7.0606937 c -0.2232671,0 -0.4093242,-0.042192 -0.5581714,-0.131851 -0.1581501,-0.089658 -0.2325711,-0.1951396 -0.2325711,-0.3164424 z"
     inkscape:connector-curvature="0" /><path
     style="fill:#4d4d4d;stroke-width:0.70045412"
     sodipodi:nodetypes="scsssscsscs"
     id="path4375"
     d="m -7.8514364,18.351827 c 0,-0.126577 0.08373,-0.232058 0.241874,-0.316443 0.139527,-0.07911 0.325601,-0.121302 0.5488685,-0.121302 H 10.307738 c 0.213964,0 0.390718,0.04219 0.539568,0.126576 0.148836,0.08438 0.213961,0.184592 0.213961,0.311169 0,0.126577 -0.07443,0.232057 -0.213961,0.316442 -0.14886,0.08966 -0.325604,0.131851 -0.539568,0.131851 H -7.0606939 c -0.2232675,0 -0.4093245,-0.04219 -0.5581715,-0.131851 -0.15815,-0.08966 -0.232571,-0.19514 -0.232571,-0.316442 z"
     inkscape:connector-curvature="0" /><path
     style="fill:#4d4d4d;stroke-width:0.70045412"
     sodipodi:nodetypes="scsssscsscs"
     id="path4377"
     d="m -7.8514368,16.700902 c 0,-0.126577 0.08373,-0.232058 0.241874,-0.316443 0.139527,-0.07911 0.325601,-0.121302 0.548869,-0.121302 H 10.307738 c 0.213964,0 0.390718,0.04219 0.539568,0.126576 0.148836,0.08438 0.213961,0.184592 0.213961,0.311169 0,0.126577 -0.07443,0.232057 -0.213961,0.316442 -0.14886,0.08966 -0.325604,0.131851 -0.539568,0.131851 H -7.0606938 c -0.223268,0 -0.409325,-0.04219 -0.558172,-0.131851 -0.15815,-0.08966 -0.232571,-0.19514 -0.232571,-0.316442 z"
     inkscape:connector-curvature="0" /><path
     style="fill:#4d4d4d;stroke-width:0.70045412"
     sodipodi:nodetypes="scsssscsscs"
     id="path4379"
     d="m -7.8514364,15.049978 c 0,-0.126577 0.08373,-0.232058 0.241874,-0.316443 0.139527,-0.07911 0.325601,-0.121302 0.548868,-0.121302 H 10.307738 c 0.213964,0 0.390718,0.04219 0.539568,0.126576 0.148836,0.08438 0.213961,0.184592 0.213961,0.311169 0,0.126577 -0.07443,0.232057 -0.213961,0.316442 -0.14886,0.08966 -0.325604,0.131851 -0.539568,0.131851 H -7.0606944 c -0.223267,0 -0.409324,-0.04219 -0.558171,-0.131851 -0.15815,-0.08966 -0.232571,-0.19514 -0.232571,-0.316442 z"
     inkscape:connector-curvature="0" /><path
     style="fill:#4d4d4d;stroke-width:0.70045412"
     sodipodi:nodetypes="scsssscsscs"
     id="path4381"
     d="m -7.8514361,13.399053 c 0,-0.126577 0.08373,-0.232058 0.241874,-0.316443 0.139527,-0.07911 0.325601,-0.121302 0.548868,-0.121302 H 10.307738 c 0.213964,0 0.390718,0.04219 0.539568,0.126576 0.148836,0.08438 0.213961,0.184592 0.213961,0.311169 0,0.126577 -0.07443,0.232057 -0.213961,0.316442 -0.14886,0.08966 -0.325604,0.131851 -0.539568,0.131851 H -7.0606941 c -0.223267,0 -0.409324,-0.04219 -0.558171,-0.131851 -0.15815,-0.08966 -0.232571,-0.19514 -0.232571,-0.316442 z"
     inkscape:connector-curvature="0" /><path
     style="fill:#4d4d4d;stroke-width:0.70045412"
     sodipodi:nodetypes="scsssscsscs"
     id="path4383"
     d="m -7.8514359,11.748128 c 0,-0.126577 0.08373,-0.232058 0.241874,-0.316443 0.139527,-0.07911 0.325601,-0.121302 0.548868,-0.121302 H 10.307738 c 0.213964,0 0.390718,0.04219 0.539568,0.126576 0.148836,0.08438 0.213961,0.184592 0.213961,0.311169 0,0.126577 -0.07443,0.232057 -0.213961,0.316442 -0.14886,0.08966 -0.325604,0.131851 -0.539568,0.131851 H -7.0606939 c -0.223267,0 -0.409324,-0.04219 -0.558171,-0.131851 -0.15815,-0.08966 -0.232571,-0.19514 -0.232571,-0.316442 z"
     inkscape:connector-curvature="0" /><path
     style="fill:#4d4d4d;stroke-width:0.70045412"
     sodipodi:nodetypes="scsssscsscs"
     id="path4385"
     d="m -7.8514368,8.4462798 c 0,-0.126577 0.08373,-0.232058 0.241874,-0.316443 0.139527,-0.07911 0.325601,-0.121302 0.548869,-0.121302 H 10.307738 c 0.213964,0 0.390718,0.04219 0.539568,0.126576 0.148836,0.08438 0.213961,0.184592 0.213961,0.311169 0,0.126577 -0.07443,0.232057 -0.213961,0.316442 -0.14886,0.08966 -0.325604,0.131851 -0.539568,0.131851 H -7.0606938 c -0.223268,0 -0.409325,-0.04219 -0.558172,-0.131851 -0.15815,-0.08966 -0.232571,-0.19514 -0.232571,-0.316442 z"
     inkscape:connector-curvature="0" /><path
     style="fill:#4d4d4d;stroke-width:0.70045412"
     sodipodi:nodetypes="scsssscsscs"
     id="path4387"
     d="m -7.8514365,10.097204 c 0,-0.1265775 0.08373,-0.2320585 0.241874,-0.3164435 0.139527,-0.07911 0.325601,-0.121302 0.548869,-0.121302 H 10.307738 c 0.213964,0 0.390718,0.04219 0.539568,0.126576 0.148836,0.08438 0.213961,0.184592 0.213961,0.3111695 0,0.126577 -0.07443,0.232057 -0.213961,0.316442 -0.14886,0.08966 -0.325604,0.131851 -0.539568,0.131851 H -7.0606935 c -0.223268,0 -0.409325,-0.04219 -0.558172,-0.131851 -0.15815,-0.08966 -0.232571,-0.19514 -0.232571,-0.316442 z"
     inkscape:connector-curvature="0" /><path
     style="fill:#4d4d4d;stroke-width:0.70045412"
     sodipodi:nodetypes="scsssscsscs"
     id="path4389"
     d="m -7.8514366,6.7953561 c 0,-0.126577 0.08373,-0.232058 0.241874,-0.316443 0.1395272,-0.07911 0.3256012,-0.121302 0.5488687,-0.121302 H 10.307738 c 0.213964,0 0.390718,0.04219 0.539568,0.126576 0.148836,0.08438 0.213961,0.184592 0.213961,0.311169 0,0.126577 -0.07443,0.232057 -0.213961,0.316442 -0.14886,0.08966 -0.325604,0.131851 -0.539568,0.131851 H -7.0606939 c -0.2232675,0 -0.4093245,-0.04219 -0.5581717,-0.131851 -0.15815,-0.08966 -0.232571,-0.19514 -0.232571,-0.316442 z"
     inkscape:connector-curvature="0" /><path
     style="fill:#4d4d4d;stroke-width:0.70045412"
     sodipodi:nodetypes="scsssscsscs"
     id="path4391"
     d="m -7.8514364,5.1444323 c 0,-0.126577 0.08373,-0.232058 0.241874,-0.316443 0.139527,-0.07911 0.325601,-0.121302 0.5488685,-0.121302 H 10.307738 c 0.213964,0 0.390718,0.04219 0.539568,0.126576 0.148836,0.08438 0.213961,0.184592 0.213961,0.311169 0,0.126577 -0.07443,0.232057 -0.213961,0.316442 -0.14886,0.08966 -0.325604,0.131851 -0.539568,0.131851 H -7.0606939 c -0.2232675,0 -0.4093245,-0.04219 -0.5581715,-0.131851 -0.15815,-0.08966 -0.232571,-0.19514 -0.232571,-0.316442 z"
     inkscape:connector-curvature="0" /></g><path
   style="opacity:1;fill:#4d4d4d;fill-opacity:1;stroke-width:0.04419417"
   d="M 8.0708387,21.503603 C 7.4408922,21.430554 6.5805865,21.152465 6.1077401,20.869043 l -0.1846886,-0.110702 8.2422135,3.35e-4 8.242213,3.36e-4 -0.220971,0.131579 c -0.482684,0.28742 -1.293198,0.538883 -1.988737,0.617007 -0.489534,0.05499 -11.6500113,0.05131 -12.1269313,-0.004 z"
   id="path824"
   inkscape:connector-curvature="0" /><path
   style="opacity:1;fill:#4d4d4d;fill-opacity:1;stroke-width:0.04419417"
   d="M 3.5667676,17.873835 3.4309511,17.465039 14.046166,17.452965 c 5.838369,-0.0066 10.658046,-0.0018 10.710395,0.01082 0.104254,0.02508 0.100371,0.04969 -0.09605,0.608922 l -0.07373,0.209922 H 14.144683 3.7025842 Z"
   id="path826"
   inkscape:connector-curvature="0" /><path
   style="opacity:1;fill:#4d4d4d;fill-opacity:1;stroke-width:0.04419417"
   d="m 3.3813276,14.957549 c -3.075e-4,-0.03068 0.052546,-0.229787 0.1174514,-0.442471 L 3.6167894,14.128379 H 14.130292 24.643794 l 0.06544,0.15661 c 0.115094,0.27546 0.188832,0.613621 0.14413,0.660982 -0.06771,0.07174 -21.4713148,0.08328 -21.4720334,0.01158 z"
   id="path828"
   inkscape:connector-curvature="0" /><path
   style="opacity:1;fill:#4d4d4d;fill-opacity:1;stroke-width:0.04419417"
   d="m 5.7020807,11.583481 c 0.3132097,-0.197483 0.7423942,-0.402625 1.1048543,-0.5281 0.1944544,-0.06732 0.3756332,-0.149206 0.4026197,-0.181979 0.040772,-0.04951 1.195152,-0.05959 6.8288883,-0.05959 6.671455,0 6.785106,0.0014 7.11039,0.08957 0.333411,0.09034 1.297162,0.542642 1.501713,0.704774 0.110241,0.08738 0.09142,0.08757 -8.507378,0.08718 l -8.617864,-3.98e-4 0.1767767,-0.11146 z"
   id="path830"
   inkscape:connector-curvature="0" /><path
   style="opacity:1;fill:#4d4d4d;fill-opacity:1;stroke-width:0.04419417"
   d="M 8.9144637,7.9621541 9.3426138,7.5434466 h 4.0922382 4.092238 l 0.396214,0.3819512 c 0.217917,0.2100731 0.396213,0.3990032 0.396213,0.4198446 0,0.020842 -2.212445,0.037382 -4.916602,0.036756 l -4.9166014,-0.00114 z"
   id="path832"
   inkscape:connector-curvature="0" /><path
   style="opacity:1;fill:#4d4d4d;fill-opacity:1;stroke-width:0.04419417"
   d="M 4.5729266,19.602428 C 4.4165735,19.41405 4.2618753,19.22512 4.2291529,19.182583 c -0.056622,-0.0736 0.4223635,-0.07734 9.9167851,-0.07734 h 9.97628 l -0.07827,0.121534 c -0.04305,0.06684 -0.189517,0.255399 -0.325491,0.419011 l -0.247225,0.297477 -9.307016,8.34e-4 -9.307016,8.34e-4 z"
   id="path834"
   inkscape:connector-curvature="0" /><path
   style="opacity:1;fill:#4d4d4d;fill-opacity:1;stroke-width:0.04419417"
   d="m 3.2807686,16.464641 c -0.015066,-0.09115 -0.027612,-0.280238 -0.02788,-0.420196 l -4.864e-4,-0.254468 10.8259968,0.0114 c 9.98566,0.01051 10.831648,0.01705 10.898804,0.08421 0.06038,0.06038 0.06751,0.125577 0.04176,0.381977 -0.03011,0.299861 -0.03508,0.309975 -0.165144,0.335986 -0.07375,0.01475 -4.951697,0.02682 -10.839876,0.02682 H 3.3081617 Z"
   id="path836"
   inkscape:connector-curvature="0" /><path
   style="opacity:1;fill:#4d4d4d;fill-opacity:1;stroke-width:0.04419417"
   d="m 4.0703637,13.238467 c 0.042254,-0.06684 0.1858595,-0.265718 0.3191229,-0.441942 l 0.2422972,-0.320408 h 9.5193472 9.519347 l 0.266754,0.359772 c 0.146715,0.197874 0.286544,0.396748 0.310731,0.441941 0.04281,0.07999 -0.225725,0.08217 -10.105225,0.08217 h -10.1492 z"
   id="path838"
   inkscape:connector-curvature="0" /><path
   style="opacity:1;fill:#4d4d4d;fill-opacity:1;stroke-width:0.04419417"
   d="M 7.59235,9.8355154 C 7.6431351,9.7200581 7.7433521,9.5211843 7.8150545,9.3935736 l 0.130368,-0.2320194 h 5.4722545 5.472254 l 0.08919,0.1443109 c 0.04905,0.079371 0.149281,0.2782448 0.222727,0.4419417 l 0.133538,0.2976312 H 13.417699 7.5000134 Z"
   id="path840"
   inkscape:connector-curvature="0" /><path
   style="opacity:1;fill:#333333;fill-opacity:1;stroke-width:0.04419417"
   d="m 10.853801,6.635897 c 1.281074,-0.5715938 3.000859,-0.6818033 4.383648,-0.2809187 0.207713,0.060218 0.514523,0.1687163 0.681802,0.2411074 l 0.304142,0.1316201 -2.784233,-0.00154 -2.784233,-0.00154 0.198874,-0.088734 z"
   id="path842"
   inkscape:connector-curvature="0" /><path
   style="opacity:1;fill:#333333;fill-opacity:1;stroke-width:0.04419417"
   d="M 8.2351283,21.479612 C 7.5607737,21.432338 6.8651255,21.234697 6.2463905,20.914589 l -0.265165,-0.137185 8.1759225,-7.47e-4 8.175922,-7.46e-4 -0.176777,0.109431 c -0.456688,0.282705 -1.337103,0.536199 -2.074122,0.597193 -0.561642,0.04648 -11.1796839,0.04386 -11.8470427,-0.0029 z"
   id="path844"
   inkscape:connector-curvature="0" /><path
   style="opacity:1;fill:#333333;fill-opacity:1;stroke-width:0.04419417"
   d="M 4.573065,19.570955 C 4.2913087,19.229763 4.2793226,19.206368 4.3692297,19.173109 c 0.052538,-0.01944 4.5088434,-0.03032 9.9029003,-0.02419 l 9.807376,0.01115 -0.311203,0.386699 -0.311204,0.386699 H 14.164762 4.8724245 Z"
   id="path846"
   inkscape:connector-curvature="0" /><path
   style="opacity:1;fill:#333333;fill-opacity:1;stroke-width:0.04419417"
   d="M 3.2921829,16.389093 C 3.2767109,16.260265 3.2638789,16.079322 3.2636679,15.986996 L 3.2632838,15.81913 14.057711,15.83261 c 6.197074,0.0077 10.829381,0.03026 10.876498,0.05288 0.07029,0.03374 0.07951,0.07969 0.06421,0.319988 -0.0098,0.154328 -0.04278,0.30551 -0.07323,0.335961 -0.04398,0.04398 -2.270662,0.05809 -10.830117,0.06863 l -10.7747583,0.01326 z"
   id="path848"
   inkscape:connector-curvature="0" /><path
   style="opacity:1;fill:#333333;fill-opacity:1;stroke-width:0.04419417"
   d="M 3.8520907,14.950788 3.4023345,14.936498 3.4926175,14.6176 c 0.049656,-0.175393 0.1002385,-0.3537 0.1124058,-0.396237 0.020989,-0.07338 0.5604413,-0.07734 10.5311247,-0.07734 h 10.509001 l 0.09245,0.273747 c 0.05085,0.15056 0.09245,0.326318 0.09245,0.390574 v 0.116828 l -1.664515,0.02927 c -1.61232,0.02835 -18.4058699,0.02517 -19.3134357,-0.0037 z"
   id="path850"
   inkscape:connector-curvature="0" /><path
   style="opacity:1;fill:#333333;fill-opacity:1;stroke-width:0.04419417"
   d="m 5.6497691,11.649218 c 0,-0.04387 0.5931517,-0.347809 0.9590398,-0.491416 0.2138854,-0.08395 0.4569335,-0.187195 0.5401069,-0.229437 0.1416852,-0.07196 0.5821506,-0.07681 6.9826792,-0.07681 h 6.831455 l 0.287263,0.102153 c 0.157994,0.05618 0.535854,0.224128 0.839689,0.373211 0.479803,0.235425 0.537902,0.275158 0.441942,0.302238 -0.118611,0.03347 -16.8821749,0.05339 -16.8821749,0.02006 z"
   id="path852"
   inkscape:connector-curvature="0" /><path
   style="opacity:1;fill:#333333;fill-opacity:1;stroke-width:0.04419417"
   d="m 7.5736573,9.9345312 c 0.016222,-0.05469 0.1049322,-0.2386485 0.1971333,-0.4087961 l 0.1676382,-0.3093592 5.4792312,-0.011221 5.479232,-0.011221 0.157894,0.3004735 c 0.08684,0.1652604 0.178347,0.3542679 0.203345,0.4200167 l 0.04545,0.1195429 H 13.423872 7.5441623 Z"
   id="path854"
   inkscape:connector-curvature="0" /></svg>