<?xml version="1.0" encoding="UTF-8" standalone="no"?>
<!-- Generator: Adobe Illustrator 22.0.1, SVG Export Plug-In . SVG Version: 6.00 Build 0)  -->

<svg
   xmlns:dc="http://purl.org/dc/elements/1.1/"
   xmlns:cc="http://creativecommons.org/ns#"
   xmlns:rdf="http://www.w3.org/1999/02/22-rdf-syntax-ns#"
   xmlns:svg="http://www.w3.org/2000/svg"
   xmlns="http://www.w3.org/2000/svg"
   xmlns:sodipodi="http://sodipodi.sourceforge.net/DTD/sodipodi-0.dtd"
   xmlns:inkscape="http://www.inkscape.org/namespaces/inkscape"
   version="1.1"
   id="Layer_1"
   x="0px"
   y="0px"
   viewBox="0 0 30 30"
   style="enable-background:new 0 0 30 30;"
   xml:space="preserve"
   sodipodi:docname="wi-direction-up-left.svg"
   inkscape:version="0.92.5 (2060ec1f9f, 2020-04-08)"><metadata
   id="metadata9"><rdf:RDF><cc:Work
       rdf:about=""><dc:format>image/svg+xml</dc:format><dc:type
         rdf:resource="http://purl.org/dc/dcmitype/StillImage" /><dc:title></dc:title></cc:Work></rdf:RDF></metadata><defs
   id="defs7" /><sodipodi:namedview
   pagecolor="#ffffff"
   bordercolor="#666666"
   borderopacity="1"
   objecttolerance="10"
   gridtolerance="10"
   guidetolerance="10"
   inkscape:pageopacity="0"
   inkscape:pageshadow="2"
   inkscape:window-width="1918"
   inkscape:window-height="1014"
   id="namedview5"
   showgrid="false"
   inkscape:zoom="7.8666667"
   inkscape:cx="12.076271"
   inkscape:cy="15"
   inkscape:window-x="1920"
   inkscape:window-y="0"
   inkscape:window-maximized="1"
   inkscape:current-layer="Layer_1" />
<path
   d="m 16.561483,8.0874298 c 0.254559,0.240416 0.388909,0.53033 0.39598,0.876812 0.0071,0.346483 -0.113137,0.636397 -0.374766,0.883884 -0.226275,0.2545582 -0.516188,0.3747662 -0.883884,0.3606242 l -2.333452,0.01414 7.2832,7.283199 c 0.254558,0.240416 0.374767,0.53033 0.367696,0.876813 -0.0071,0.346482 -0.141422,0.636396 -0.410122,0.890954 -0.226275,0.254559 -0.516188,0.388909 -0.8556,0.403051 -0.339411,0.01414 -0.650538,-0.09899 -0.905097,-0.339411 l -7.2832,-7.283199 v 2.31931 c 0.0071,0.33234 -0.113137,0.636396 -0.360624,0.883884 -0.254559,0.254558 -0.551543,0.381837 -0.890955,0.381837 -0.3394106,0 -0.6293246,-0.120208 -0.8838826,-0.374766 -0.240416,-0.268701 -0.346482,-0.558615 -0.318198,-0.883884 l -0.07071,-5.3598692 c 0.0071,-0.332338 0.127278,-0.650537 0.367695,-0.933379 0.275771,-0.247488 0.593969,-0.367696 0.9404516,-0.360625 l 5.345727,0.04243 c 0.339411,-0.02828 0.629325,0.07778 0.869741,0.318199 z"
   id="path2"
   inkscape:connector-curvature="0" />
</svg>