<?xml version="1.0" encoding="UTF-8" standalone="no"?>
<!-- Generator: Adobe Illustrator 22.0.1, SVG Export Plug-In . SVG Version: 6.00 Build 0)  -->

<svg
   xmlns:dc="http://purl.org/dc/elements/1.1/"
   xmlns:cc="http://creativecommons.org/ns#"
   xmlns:rdf="http://www.w3.org/1999/02/22-rdf-syntax-ns#"
   xmlns:svg="http://www.w3.org/2000/svg"
   xmlns="http://www.w3.org/2000/svg"
   xmlns:sodipodi="http://sodipodi.sourceforge.net/DTD/sodipodi-0.dtd"
   xmlns:inkscape="http://www.inkscape.org/namespaces/inkscape"
   version="1.1"
   id="Layer_1"
   x="0px"
   y="0px"
   viewBox="0 0 30 30"
   style="enable-background:new 0 0 30 30;"
   xml:space="preserve"
   sodipodi:docname="wi-direction-right.svg"
   inkscape:version="0.92.5 (2060ec1f9f, 2020-04-08)"><metadata
   id="metadata9"><rdf:RDF><cc:Work
       rdf:about=""><dc:format>image/svg+xml</dc:format><dc:type
         rdf:resource="http://purl.org/dc/dcmitype/StillImage" /><dc:title></dc:title></cc:Work></rdf:RDF></metadata><defs
   id="defs7" /><sodipodi:namedview
   pagecolor="#ffffff"
   bordercolor="#666666"
   borderopacity="1"
   objecttolerance="10"
   gridtolerance="10"
   guidetolerance="10"
   inkscape:pageopacity="0"
   inkscape:pageshadow="2"
   inkscape:window-width="958"
   inkscape:window-height="1014"
   id="namedview5"
   showgrid="false"
   inkscape:zoom="7.8666667"
   inkscape:cx="15.254237"
   inkscape:cy="15"
   inkscape:window-x="2880"
   inkscape:window-y="0"
   inkscape:window-maximized="0"
   inkscape:current-layer="Layer_1" />
<path
   d="m 22.91,14.95 c 0,-0.37 -0.12,-0.68 -0.37,-0.92 L 18.7,10.28 C 18.48,10.03 18.19,9.9 17.85,9.9 c -0.35,0 -0.65,0.12 -0.89,0.35 -0.24,0.23 -0.37,0.53 -0.37,0.88 0,0.35 0.12,0.65 0.37,0.89 l 1.64,1.64 H 8.3 c -0.35,0 -0.64,0.12 -0.87,0.37 -0.23,0.25 -0.34,0.55 -0.34,0.9 0,0.35 0.11,0.65 0.34,0.9 0.23,0.25 0.52,0.38 0.87,0.39 h 10.3 l -1.64,1.66 c -0.24,0.24 -0.37,0.53 -0.37,0.86 0,0.35 0.12,0.65 0.37,0.89 0.25,0.24 0.54,0.38 0.9,0.38 0.32,0 0.61,-0.14 0.85,-0.41 l 3.84,-3.75 c 0.24,-0.25 0.36,-0.54 0.36,-0.9 z"
   id="path2"
   inkscape:connector-curvature="0" />
</svg>