<?xml version="1.0" encoding="UTF-8" standalone="no"?>
<svg
   xmlns:dc="http://purl.org/dc/elements/1.1/"
   xmlns:cc="http://creativecommons.org/ns#"
   xmlns:rdf="http://www.w3.org/1999/02/22-rdf-syntax-ns#"
   xmlns:svg="http://www.w3.org/2000/svg"
   xmlns="http://www.w3.org/2000/svg"
   xmlns:sodipodi="http://sodipodi.sourceforge.net/DTD/sodipodi-0.dtd"
   xmlns:inkscape="http://www.inkscape.org/namespaces/inkscape"
   width="700pt"
   height="700pt"
   version="1.1"
   viewBox="0 0 700 700"
   id="svg885"
   sodipodi:docname="noun-sad-computer-2390785.svg"
   inkscape:export-filename="/home/will/source/nspanel/assets/icons/additional_icons/sad_computer.png"
   inkscape:export-xdpi="44.099682"
   inkscape:export-ydpi="44.099682"
   inkscape:version="0.92.5 (2060ec1f9f, 2020-04-08)">
  <metadata
     id="metadata891">
    <rdf:RDF>
      <cc:Work
         rdf:about="">
        <dc:format>image/svg+xml</dc:format>
        <dc:type
           rdf:resource="http://purl.org/dc/dcmitype/StillImage" />
        <dc:title></dc:title>
      </cc:Work>
    </rdf:RDF>
  </metadata>
  <defs
     id="defs889" />
  <sodipodi:namedview
     pagecolor="#ef9a5a"
     bordercolor="#666666"
     borderopacity="1"
     objecttolerance="10"
     gridtolerance="10"
     guidetolerance="10"
     inkscape:pageopacity="1"
     inkscape:pageshadow="2"
     inkscape:window-width="1918"
     inkscape:window-height="1014"
     id="namedview887"
     showgrid="false"
     inkscape:pagecheckerboard="false"
     inkscape:zoom="0.89678571"
     inkscape:cx="466.66667"
     inkscape:cy="466.66667"
     inkscape:window-x="1920"
     inkscape:window-y="0"
     inkscape:window-maximized="1"
     inkscape:current-layer="svg885" />
  <g
     id="g883">
    <path
       d="m 577.5,35 h -455 C 108.574,35 95.223,40.5312 85.375,50.375 75.5312,60.2227 70,73.574 70,87.5 V 385 c 0,13.926 5.5312,27.277 15.375,37.125 9.8477,9.8438 23.199,15.375 37.125,15.375 h 136.15 l -10.5,52.5 h -20.648 c -6.2539,0 -12.031,3.3359 -15.156,8.75 -3.125,5.4141 -3.125,12.086 0,17.5 3.125,5.414 8.9023,8.75 15.156,8.75 h 210 c 0.10938,0.0195 0.22266,0.0195 0.33203,0 h 34.668 c 6.2539,0 12.031,-3.3359 15.156,-8.75 3.125,-5.4141 3.125,-12.086 0,-17.5 -3.125,-5.414 -8.9023,-8.75 -15.156,-8.75 h -20.668 l -10.5,-52.5 h 136.17 c 13.926,0 27.277,-5.5312 37.125,-15.375 9.8438,-9.8477 15.375,-23.199 15.375,-37.125 V 87.5 c 0,-13.926 -5.5312,-27.277 -15.375,-37.125 C 604.78133,40.5312 591.43003,35 577.50403,35 Z M 416.15,490 h -132.3 l 10.5,-52.5 H 405.69 Z M 595,385 c 0,4.6406 -1.8438,9.0938 -5.125,12.375 -3.2812,3.2812 -7.7344,5.125 -12.375,5.125 h -455 c -4.6406,0 -9.0938,-1.8438 -12.375,-5.125 C 106.8438,394.0938 105,389.6406 105,385 V 87.5 c 0,-4.6406 1.8438,-9.0938 5.125,-12.375 C 113.4062,71.8438 117.8594,70 122.5,70 h 455 c 4.6406,0 9.0938,1.8438 12.375,5.125 3.2812,3.2812 5.125,7.7344 5.125,12.375 z"
       id="path873"
       inkscape:connector-curvature="0" />
    <path
       d="M 560,87.5 H 140 c -4.6406,0 -9.0938,1.8438 -12.375,5.125 -3.2812,3.2812 -5.125,7.7344 -5.125,12.375 v 262.5 c 0,4.6406 1.8438,9.0938 5.125,12.375 3.2812,3.2812 7.7344,5.125 12.375,5.125 h 420 c 4.6406,0 9.0938,-1.8438 12.375,-5.125 3.2812,-3.2812 5.125,-7.7344 5.125,-12.375 V 105 c 0,-4.6406 -1.8438,-9.0938 -5.125,-12.375 C 569.0938,89.3438 564.6406,87.5 560,87.5 Z M 542.5,350 h -385 V 122.5 h 385 z"
       id="path875"
       inkscape:connector-curvature="0" />
    <path
       d="m 397.81,223.44 c 3.2812,3.2812 7.7344,5.1211 12.375,5.1211 4.6406,0 9.0898,-1.8398 12.371,-5.1211 l 6.1953,-6.1758 6.1758,6.1758 c 4.4219,4.4219 10.867,6.1523 16.906,4.5352 6.043,-1.6172 10.762,-6.332 12.383,-12.371 1.6211,-6.043 -0.10547,-12.488 -4.5234,-16.91 l -6.1953,-6.1953 6.1953,-6.1953 c 4.418,-4.4219 6.1445,-10.867 4.5234,-16.91 -1.6211,-6.0391 -6.3398,-10.754 -12.383,-12.371 -6.0391,-1.6172 -12.484,0.11328 -16.906,4.5352 l -6.1758,6.1758 -6.1953,-6.1758 c -4.4453,-4.293 -10.824,-5.9219 -16.785,-4.2891 -5.9609,1.6367 -10.613,6.2891 -12.25,12.25 -1.6328,5.9609 -0.004,12.34 4.2891,16.785 l 6.1953,6.1953 -6.1953,6.1758 c -3.2852,3.2852 -5.1328,7.7383 -5.1328,12.383 0,4.6445 1.8477,9.0977 5.1328,12.383 z"
       id="path877"
       inkscape:connector-curvature="0" />
    <path
       d="m 240.31,223.44 c 3.2812,3.2812 7.7344,5.1211 12.375,5.1211 4.6406,0 9.0898,-1.8398 12.371,-5.1211 l 6.1953,-6.1758 6.1758,6.1758 c 4.4219,4.4219 10.867,6.1523 16.906,4.5352 6.043,-1.6172 10.762,-6.332 12.383,-12.371 1.6211,-6.043 -0.10547,-12.488 -4.5234,-16.91 l -6.1953,-6.1953 6.1953,-6.1953 c 4.418,-4.4219 6.1445,-10.867 4.5234,-16.91 -1.6211,-6.0391 -6.3398,-10.754 -12.383,-12.371 -6.0391,-1.6172 -12.484,0.11328 -16.906,4.5352 l -6.1758,6.1758 -6.1953,-6.1758 c -4.4453,-4.293 -10.824,-5.9219 -16.785,-4.2891 -5.9609,1.6367 -10.613,6.2891 -12.25,12.25 -1.6328,5.9609 -0.004,12.34 4.2891,16.785 l 6.1953,6.1953 -6.1953,6.1758 c -3.2852,3.2852 -5.1328,7.7383 -5.1328,12.383 0,4.6445 1.8477,9.0977 5.1328,12.383 z"
       id="path879"
       inkscape:connector-curvature="0" />
    <path
       d="m 254.77,295.52 c -1.5625,4.3711 -1.3203,9.1836 0.66797,13.379 1.9883,4.1953 5.5625,7.4258 9.9375,8.9844 1.8867,0.66797 3.875,1.0117 5.8789,1.0156 3.6094,0 7.1328,-1.1172 10.086,-3.1953 2.9492,-2.082 5.1875,-5.0234 6.3984,-8.4258 0,-0.28125 11.148,-27.266 62.266,-27.266 47.094,0 62.211,27.492 63,29.121 2.7305,5.6289 8.2539,9.3711 14.492,9.8203 6.2344,0.44922 12.238,-2.4609 15.75,-7.6367 3.5078,-5.1797 3.9883,-11.832 1.2578,-17.461 -0.91016,-1.9961 -24.078,-48.859 -94.5,-48.859 -76.352,0 -94.5,48.457 -95.234,50.523 z"
       id="path881"
       inkscape:connector-curvature="0" />
  </g>
</svg>
