<?xml version="1.0" encoding="UTF-8"?>
<svg width="700pt" height="700pt" version="1.1" viewBox="0 0 700 700" xmlns="http://www.w3.org/2000/svg">
 <g>
  <path d="m577.5 35h-455c-13.926 0-27.277 5.5312-37.125 15.375-9.8438 9.8477-15.375 23.199-15.375 37.125v297.5c0 13.926 5.5312 27.277 15.375 37.125 9.8477 9.8438 23.199 15.375 37.125 15.375h136.15l-10.5 52.5h-20.648c-6.2539 0-12.031 3.3359-15.156 8.75s-3.125 12.086 0 17.5 8.9023 8.75 15.156 8.75h210c0.10938 0.019531 0.22266 0.019531 0.33203 0h34.668c6.2539 0 12.031-3.3359 15.156-8.75s3.125-12.086 0-17.5-8.9023-8.75-15.156-8.75h-20.668l-10.5-52.5h136.17c13.926 0 27.277-5.5312 37.125-15.375 9.8438-9.8477 15.375-23.199 15.375-37.125v-297.5c0-13.926-5.5312-27.277-15.375-37.125-9.8477-9.8438-23.199-15.375-37.125-15.375zm-161.35 455h-132.3l10.5-52.5h111.34zm178.85-105c0 4.6406-1.8438 9.0938-5.125 12.375s-7.7344 5.125-12.375 5.125h-455c-4.6406 0-9.0938-1.8438-12.375-5.125s-5.125-7.7344-5.125-12.375v-297.5c0-4.6406 1.8438-9.0938 5.125-12.375s7.7344-5.125 12.375-5.125h455c4.6406 0 9.0938 1.8438 12.375 5.125s5.125 7.7344 5.125 12.375z"/>
  <path d="m560 87.5h-420c-4.6406 0-9.0938 1.8438-12.375 5.125s-5.125 7.7344-5.125 12.375v262.5c0 4.6406 1.8438 9.0938 5.125 12.375s7.7344 5.125 12.375 5.125h420c4.6406 0 9.0938-1.8438 12.375-5.125s5.125-7.7344 5.125-12.375v-262.5c0-4.6406-1.8438-9.0938-5.125-12.375s-7.7344-5.125-12.375-5.125zm-17.5 262.5h-385v-227.5h385z"/>
  <path d="m397.81 223.44c3.2812 3.2812 7.7344 5.1211 12.375 5.1211s9.0898-1.8398 12.371-5.1211l6.1953-6.1758 6.1758 6.1758c4.4219 4.4219 10.867 6.1523 16.906 4.5352 6.043-1.6172 10.762-6.332 12.383-12.371 1.6211-6.043-0.10547-12.488-4.5234-16.91l-6.1953-6.1953 6.1953-6.1953c4.418-4.4219 6.1445-10.867 4.5234-16.91-1.6211-6.0391-6.3398-10.754-12.383-12.371-6.0391-1.6172-12.484 0.11328-16.906 4.5352l-6.1758 6.1758-6.1953-6.1758c-4.4453-4.293-10.824-5.9219-16.785-4.2891-5.9609 1.6367-10.613 6.2891-12.25 12.25-1.6328 5.9609-0.003906 12.34 4.2891 16.785l6.1953 6.1953-6.1953 6.1758c-3.2852 3.2852-5.1328 7.7383-5.1328 12.383 0 4.6445 1.8477 9.0977 5.1328 12.383z"/>
  <path d="m240.31 223.44c3.2812 3.2812 7.7344 5.1211 12.375 5.1211s9.0898-1.8398 12.371-5.1211l6.1953-6.1758 6.1758 6.1758c4.4219 4.4219 10.867 6.1523 16.906 4.5352 6.043-1.6172 10.762-6.332 12.383-12.371 1.6211-6.043-0.10547-12.488-4.5234-16.91l-6.1953-6.1953 6.1953-6.1953c4.418-4.4219 6.1445-10.867 4.5234-16.91-1.6211-6.0391-6.3398-10.754-12.383-12.371-6.0391-1.6172-12.484 0.11328-16.906 4.5352l-6.1758 6.1758-6.1953-6.1758c-4.4453-4.293-10.824-5.9219-16.785-4.2891-5.9609 1.6367-10.613 6.2891-12.25 12.25-1.6328 5.9609-0.003906 12.34 4.2891 16.785l6.1953 6.1953-6.1953 6.1758c-3.2852 3.2852-5.1328 7.7383-5.1328 12.383 0 4.6445 1.8477 9.0977 5.1328 12.383z"/>
  <path d="m254.77 295.52c-1.5625 4.3711-1.3203 9.1836 0.66797 13.379 1.9883 4.1953 5.5625 7.4258 9.9375 8.9844 1.8867 0.66797 3.875 1.0117 5.8789 1.0156 3.6094 0 7.1328-1.1172 10.086-3.1953 2.9492-2.082 5.1875-5.0234 6.3984-8.4258 0-0.28125 11.148-27.266 62.266-27.266 47.094 0 62.211 27.492 63 29.121 2.7305 5.6289 8.2539 9.3711 14.492 9.8203 6.2344 0.44922 12.238-2.4609 15.75-7.6367 3.5078-5.1797 3.9883-11.832 1.2578-17.461-0.91016-1.9961-24.078-48.859-94.5-48.859-76.352 0-94.5 48.457-95.234 50.523z"/>
 </g>
</svg>
