<?xml version="1.0" encoding="UTF-8" standalone="no"?>
<!-- Generator: Adobe Illustrator 15.1.0, SVG Export Plug-In . SVG Version: 6.00 Build 0)  -->

<svg
   xmlns:dc="http://purl.org/dc/elements/1.1/"
   xmlns:cc="http://creativecommons.org/ns#"
   xmlns:rdf="http://www.w3.org/1999/02/22-rdf-syntax-ns#"
   xmlns:svg="http://www.w3.org/2000/svg"
   xmlns="http://www.w3.org/2000/svg"
   xmlns:sodipodi="http://sodipodi.sourceforge.net/DTD/sodipodi-0.dtd"
   xmlns:inkscape="http://www.inkscape.org/namespaces/inkscape"
   version="1.1"
   id="Layer_1"
   x="0px"
   y="0px"
   width="55"
   height="55"
   viewBox="0 0 55 55"
   enable-background="new 0 0 100 100"
   xml:space="preserve"
   inkscape:version="0.48.4 r9939"
   sodipodi:docname="Shades.svg"><metadata
     id="metadata3011"><rdf:RDF><cc:Work
         rdf:about=""><dc:format>image/svg+xml</dc:format><dc:type
           rdf:resource="http://purl.org/dc/dcmitype/StillImage" /></cc:Work></rdf:RDF></metadata><defs
     id="defs3009" /><sodipodi:namedview
     pagecolor="#ffffff"
     bordercolor="#666666"
     borderopacity="1"
     objecttolerance="10"
     gridtolerance="10"
     guidetolerance="10"
     inkscape:pageopacity="0"
     inkscape:pageshadow="2"
     inkscape:window-width="640"
     inkscape:window-height="480"
     id="namedview3007"
     showgrid="false"
     inkscape:zoom="2.36"
     inkscape:cx="-0.42372881"
     inkscape:cy="50"
     inkscape:window-x="0"
     inkscape:window-y="336"
     inkscape:window-maximized="0"
     inkscape:current-layer="Layer_1" /><path
     clip-rule="evenodd"
     d="m 48.562794,27.5 h -1.620526 v 3.241053 c 0,2.683592 -2.176367,4.859959 -4.86158,4.859959 h -6.480485 c -2.685213,0 -4.859961,-2.176367 -4.859961,-4.859959 l -1.60432,-6.415664 c -0.560702,-0.03889 -1.127886,-0.06644 -1.686968,-0.06644 -0.538016,0 -1.069547,0.03079 -1.588116,0.07616 l -1.602702,6.405941 c 0,2.683592 -2.176367,4.859959 -4.861579,4.859959 h -6.480485 c -2.685212,0 -4.8615795,-2.176367 -4.8615795,-4.859959 v -3.241053 h -1.618906 c -0.896152,0 -1.620527,-0.724375 -1.620527,-1.620526 v -1.620527 c 0,-0.894531 0.724375,-1.618906 1.620527,-1.618906 h 1.918703 c 0.667657,-1.884669 2.4502365,-3.24105 4.5617825,-3.24105 h 8.101012 c 1.531398,0 2.881296,0.721134 3.772586,1.829574 0.850776,-0.12316 1.743687,-0.209047 2.659284,-0.209047 0.931803,0 1.870088,0.07454 2.787306,0.175016 0.891289,-1.087373 2.228224,-1.795543 3.745037,-1.795543 h 8.101012 c 2.114787,0 3.894125,1.356381 4.563401,3.241053 h 1.918704 c 0.896152,0 1.620526,0.724375 1.620526,1.618906 v 1.620527 C 50.18334,26.775625 49.458944,27.5 48.562793,27.5 z M 18.32701,22.087442 c -0.473194,-0.474815 -1.244564,-0.474815 -1.719378,0 l -5.154895,5.156515 c -0.474815,0.474814 -0.474815,1.244564 0,1.719379 0.473193,0.474814 1.244564,0.474814 1.717758,0 L 18.32701,23.80682 c 0.474815,-0.474814 0.474815,-1.244564 0,-1.719378 z m 22.685751,0 c -0.474814,-0.474815 -1.244564,-0.474815 -1.719378,0 l -5.156516,5.156515 c -0.474814,0.474814 -0.474814,1.244564 0,1.719379 0.474814,0.474814 1.244563,0.474814 1.719379,0 l 5.156515,-5.156516 c 0.474814,-0.474814 0.474814,-1.244564 0,-1.719378 z"
     id="path3005"
     inkscape:connector-curvature="0"
     style="fill-rule:evenodd" /></svg>