<?xml version="1.0" encoding="UTF-8" standalone="no"?>
<!-- Generator: Adobe Illustrator 15.1.0, SVG Export Plug-In . SVG Version: 6.00 Build 0)  -->

<svg
   xmlns:dc="http://purl.org/dc/elements/1.1/"
   xmlns:cc="http://creativecommons.org/ns#"
   xmlns:rdf="http://www.w3.org/1999/02/22-rdf-syntax-ns#"
   xmlns:svg="http://www.w3.org/2000/svg"
   xmlns="http://www.w3.org/2000/svg"
   xmlns:sodipodi="http://sodipodi.sourceforge.net/DTD/sodipodi-0.dtd"
   xmlns:inkscape="http://www.inkscape.org/namespaces/inkscape"
   version="1.1"
   id="Layer_1"
   x="0px"
   y="0px"
   width="55"
   height="55"
   viewBox="0 0 55 55"
   enable-background="new 0 0 100 100"
   xml:space="preserve"
   inkscape:version="0.48.4 r9939"
   sodipodi:docname="Snowflake.svg"><metadata
     id="metadata3020"><rdf:RDF><cc:Work
         rdf:about=""><dc:format>image/svg+xml</dc:format><dc:type
           rdf:resource="http://purl.org/dc/dcmitype/StillImage" /></cc:Work></rdf:RDF></metadata><defs
     id="defs3018" /><sodipodi:namedview
     pagecolor="#ffffff"
     bordercolor="#666666"
     borderopacity="1"
     objecttolerance="10"
     gridtolerance="10"
     guidetolerance="10"
     inkscape:pageopacity="0"
     inkscape:pageshadow="2"
     inkscape:window-width="640"
     inkscape:window-height="480"
     id="namedview3016"
     showgrid="false"
     inkscape:zoom="2.36"
     inkscape:cx="-0.42372881"
     inkscape:cy="50"
     inkscape:window-x="10"
     inkscape:window-y="336"
     inkscape:window-maximized="0"
     inkscape:current-layer="Layer_1" /><path
     clip-rule="evenodd"
     d="m 42.275635,22.501615 -2.995206,1.728592 c 0.287589,1.043275 0.455859,2.1355 0.455859,3.269027 0,1.135058 -0.166741,2.227283 -0.455859,3.270558 l 2.995206,1.728592 c 1.46242,0.845939 1.96417,2.715266 1.118231,4.179215 -0.84441,1.462418 -2.713736,1.964168 -4.177685,1.118229 l -2.989087,-1.725532 c -1.534317,1.560322 -3.483189,2.701499 -5.667639,3.264438 v 3.460243 c 0,1.688818 -1.370636,3.059455 -3.059456,3.059455 -1.688818,0 -3.059454,-1.370637 -3.059454,-3.059455 v -3.460243 c -2.18445,-0.562939 -4.134853,-1.704116 -5.667639,-3.264438 l -2.989087,1.725532 c -1.463949,0.845939 -3.334806,0.344189 -4.177685,-1.118229 -0.845939,-1.463949 -0.344189,-3.334806 1.118231,-4.179215 l 2.995206,-1.728592 c -0.289119,-1.043274 -0.455859,-2.1355 -0.455859,-3.270557 0,-1.133528 0.16521,-2.225752 0.455859,-3.269027 l -2.995206,-1.728592 c -1.46242,-0.845938 -1.96417,-2.715265 -1.118231,-4.179214 0.844409,-1.46242 2.713736,-1.96417 4.177685,-1.118231 l 2.989087,1.725532 c 1.532786,-1.560321 3.483189,-2.701498 5.667639,-3.264438 v -3.460243 c 0,-1.688819 1.370636,-3.0594545 3.059454,-3.0594545 1.68882,0 3.059456,1.3706355 3.059456,3.0594545 v 3.460243 c 2.18445,0.56294 4.133322,1.704117 5.667639,3.264438 l 2.989087,-1.725532 c 1.463949,-0.845939 3.334806,-0.344189 4.177685,1.118231 0.845939,1.463949 0.344189,3.334805 -1.118231,4.179214 z M 27.499999,21.381856 c -3.379167,0 -6.118908,2.739741 -6.118908,6.117378 0,3.379168 2.739741,6.11891 6.118908,6.11891 3.379169,0 6.11738,-2.739742 6.11738,-6.11891 0,-3.377637 -2.738211,-6.117378 -6.11738,-6.117378 z"
     id="path3014"
     inkscape:connector-curvature="0"
     style="fill-rule:evenodd;fill:#00ffff" /></svg>