<?xml version="1.0" encoding="UTF-8" standalone="no"?>
<!-- Generator: Adobe Illustrator 22.0.1, SVG Export Plug-In . SVG Version: 6.00 Build 0)  -->

<svg
   xmlns:dc="http://purl.org/dc/elements/1.1/"
   xmlns:cc="http://creativecommons.org/ns#"
   xmlns:rdf="http://www.w3.org/1999/02/22-rdf-syntax-ns#"
   xmlns:svg="http://www.w3.org/2000/svg"
   xmlns="http://www.w3.org/2000/svg"
   xmlns:sodipodi="http://sodipodi.sourceforge.net/DTD/sodipodi-0.dtd"
   xmlns:inkscape="http://www.inkscape.org/namespaces/inkscape"
   version="1.1"
   id="Layer_1"
   x="0px"
   y="0px"
   viewBox="0 0 30 30"
   style="enable-background:new 0 0 30 30;"
   xml:space="preserve"
   sodipodi:docname="wi-snowflake-cold.svg"
   inkscape:version="0.92.5 (2060ec1f9f, 2020-04-08)"><metadata
   id="metadata9"><rdf:RDF><cc:Work
       rdf:about=""><dc:format>image/svg+xml</dc:format><dc:type
         rdf:resource="http://purl.org/dc/dcmitype/StillImage" /></cc:Work></rdf:RDF></metadata><defs
   id="defs7" /><sodipodi:namedview
   pagecolor="#ffffff"
   bordercolor="#666666"
   borderopacity="1"
   objecttolerance="10"
   gridtolerance="10"
   guidetolerance="10"
   inkscape:pageopacity="0"
   inkscape:pageshadow="2"
   inkscape:window-width="1918"
   inkscape:window-height="1134"
   id="namedview5"
   showgrid="false"
   inkscape:zoom="11.125147"
   inkscape:cx="39.486423"
   inkscape:cy="38.904951"
   inkscape:window-x="0"
   inkscape:window-y="0"
   inkscape:window-maximized="1"
   inkscape:current-layer="Layer_1" />
<path
   d="M7.46,14.41c0-0.19,0.07-0.36,0.2-0.5c0.13-0.14,0.29-0.21,0.48-0.21c0.19,0,0.36,0.07,0.49,0.21c0.13,0.14,0.2,0.3,0.2,0.5  c0,0.19-0.07,0.35-0.2,0.48c-0.13,0.13-0.3,0.2-0.48,0.2s-0.35-0.07-0.48-0.2C7.52,14.75,7.46,14.59,7.46,14.41z M9.44,14.41  c0-0.19,0.07-0.36,0.2-0.5c0.13-0.14,0.29-0.21,0.48-0.21h3.23l-2.28-2.28c-0.14-0.12-0.21-0.28-0.21-0.47  c0-0.19,0.07-0.35,0.21-0.49c0.14-0.14,0.3-0.21,0.49-0.21s0.35,0.07,0.49,0.21l2.27,2.27V9.52c0-0.19,0.07-0.36,0.21-0.5  s0.3-0.21,0.5-0.21c0.19,0,0.35,0.07,0.48,0.21c0.13,0.14,0.2,0.3,0.2,0.5v3.23l2.29-2.3c0.14-0.14,0.3-0.21,0.48-0.21  c0.18,0,0.35,0.07,0.49,0.21c0.12,0.14,0.18,0.3,0.18,0.49c0,0.19-0.06,0.35-0.18,0.47l-2.28,2.28h3.23c0.18,0,0.34,0.07,0.47,0.21  c0.13,0.14,0.2,0.3,0.2,0.5c0,0.18-0.07,0.34-0.2,0.47c-0.13,0.13-0.29,0.2-0.47,0.2h-3.23l2.29,2.29c0.12,0.12,0.18,0.28,0.18,0.47  s-0.06,0.35-0.18,0.49c-0.14,0.14-0.31,0.21-0.49,0.21c-0.18,0-0.35-0.07-0.48-0.21l-2.29-2.3v3.24c0,0.19-0.07,0.36-0.2,0.49  c-0.13,0.13-0.29,0.2-0.48,0.2c-0.19,0-0.36-0.07-0.5-0.2c-0.14-0.13-0.21-0.3-0.21-0.49v-3.22l-2.27,2.27  c-0.14,0.14-0.3,0.21-0.49,0.21s-0.35-0.07-0.49-0.21s-0.21-0.3-0.21-0.49s0.07-0.34,0.21-0.47l2.3-2.29h-3.24  c-0.19,0-0.35-0.07-0.48-0.2C9.5,14.75,9.44,14.59,9.44,14.41z M9.45,19.25c0-0.18,0.07-0.35,0.21-0.48  c0.12-0.14,0.28-0.21,0.47-0.21c0.19,0,0.35,0.07,0.49,0.21c0.14,0.14,0.21,0.3,0.21,0.48c0,0.18-0.07,0.35-0.21,0.48  c-0.14,0.14-0.3,0.21-0.49,0.21c-0.19,0-0.35-0.07-0.47-0.21C9.52,19.6,9.45,19.44,9.45,19.25z M9.45,9.54  c0-0.18,0.07-0.35,0.21-0.48c0.12-0.14,0.28-0.21,0.47-0.21c0.19,0,0.35,0.07,0.49,0.21c0.14,0.14,0.21,0.3,0.21,0.48  s-0.07,0.35-0.21,0.49c-0.14,0.14-0.3,0.21-0.49,0.21c-0.19,0-0.35-0.07-0.47-0.21C9.52,9.89,9.45,9.72,9.45,9.54z M14.3,21.25  c0-0.18,0.07-0.34,0.21-0.47c0.14-0.13,0.3-0.2,0.5-0.2c0.19,0,0.35,0.07,0.48,0.2c0.13,0.13,0.2,0.29,0.2,0.47  c0,0.19-0.07,0.36-0.2,0.49c-0.13,0.13-0.29,0.2-0.48,0.2c-0.19,0-0.36-0.07-0.5-0.2C14.37,21.61,14.3,21.45,14.3,21.25z M14.3,7.54  c0-0.19,0.07-0.36,0.21-0.49s0.3-0.2,0.5-0.2c0.19,0,0.35,0.07,0.48,0.2c0.13,0.13,0.2,0.3,0.2,0.49c0,0.18-0.07,0.34-0.2,0.47  c-0.13,0.13-0.29,0.2-0.48,0.2c-0.19,0-0.36-0.07-0.5-0.2C14.37,7.88,14.3,7.72,14.3,7.54z M19.17,19.25c0-0.18,0.07-0.35,0.21-0.48  c0.12-0.14,0.28-0.21,0.47-0.21c0.19,0,0.35,0.07,0.49,0.21c0.14,0.14,0.21,0.3,0.21,0.48c0,0.18-0.07,0.35-0.21,0.48  c-0.14,0.14-0.3,0.21-0.49,0.21c-0.19,0-0.35-0.07-0.47-0.21C19.24,19.6,19.17,19.44,19.17,19.25z M19.17,9.54  c0-0.18,0.07-0.35,0.21-0.48c0.12-0.14,0.28-0.21,0.47-0.21c0.19,0,0.35,0.07,0.49,0.21c0.14,0.14,0.21,0.3,0.21,0.48  s-0.07,0.35-0.21,0.49c-0.14,0.14-0.3,0.21-0.49,0.21c-0.19,0-0.35-0.07-0.47-0.21C19.24,9.89,19.17,9.72,19.17,9.54z M21.17,14.41  c0-0.19,0.07-0.36,0.2-0.5c0.13-0.14,0.3-0.21,0.49-0.21c0.18,0,0.34,0.07,0.47,0.21c0.13,0.14,0.2,0.3,0.2,0.5  c0,0.18-0.07,0.34-0.2,0.47c-0.13,0.13-0.29,0.2-0.47,0.2c-0.19,0-0.36-0.07-0.49-0.2C21.24,14.75,21.17,14.59,21.17,14.41z"
   id="path2"
   style="fill:#00ffff" />
<path
   style="opacity:1;fill:#00ccff;stroke-width:0.04494323"
   d="m 14.647624,8.0887771 c -0.583407,-0.3557079 -0.318253,-1.2137099 0.375081,-1.2137099 0.482533,0 0.807375,0.5691555 0.558145,0.977926 -0.190613,0.3126292 -0.626545,0.4227696 -0.933226,0.2357839 z"
   id="path9"
   inkscape:connector-curvature="0" /><path
   style="opacity:1;fill:#00ccff;stroke-width:0.04494323"
   d="M 19.508039,10.115203 C 19.311424,9.9953113 19.159613,9.6672179 19.197364,9.4437731 c 0.04058,-0.240163 0.255824,-0.4877607 0.475447,-0.5468989 0.425206,-0.1144961 0.851818,0.2165163 0.851383,0.6605962 -4.78e-4,0.4883806 -0.594872,0.8146226 -1.016155,0.5577326 z"
   id="path11"
   inkscape:connector-curvature="0" /><path
   style="opacity:1;fill:#00ccff;stroke-width:0.04494323"
   d="M 21.523938,14.965091 C 21.1986,14.76673 21.10954,14.382999 21.309607,14.041609 c 0.07811,-0.133282 0.165122,-0.211189 0.293041,-0.262372 0.226137,-0.09048 0.268941,-0.09048 0.495078,0 0.225049,0.09005 0.404218,0.368475 0.40397,0.627769 -4.67e-4,0.488728 -0.563979,0.810369 -0.977758,0.558085 z"
   id="path13"
   inkscape:connector-curvature="0" /><path
   style="opacity:1;fill:#00ccff;stroke-width:0.04494323"
   d="m 19.532885,19.834747 c -0.584821,-0.363164 -0.352563,-1.239869 0.328469,-1.239869 0.666696,0 0.908309,0.876104 0.33758,1.224082 -0.178236,0.108671 -0.504035,0.116394 -0.666049,0.01579 z"
   id="path15"
   inkscape:connector-curvature="0" /><path
   style="opacity:1;fill:#00ccff;stroke-width:0.04494323"
   d="m 14.68231,21.828806 c -0.256508,-0.135644 -0.371715,-0.345163 -0.346761,-0.630626 0.0347,-0.396959 0.444894,-0.67962 0.829333,-0.571488 0.211936,0.05961 0.290121,0.119967 0.409868,0.3164 0.194148,0.318481 0.07653,0.711496 -0.265415,0.886834 -0.248819,0.127588 -0.384092,0.127346 -0.627025,-0.0011 z"
   id="path17"
   inkscape:connector-curvature="0" /><path
   style="opacity:1;fill:#00ccff;stroke-width:0.03177966"
   d="M 9.8331608,10.153519 C 9.5203805,9.9585995 9.3893912,9.6043764 9.5169748,9.2984845 9.5736152,9.1626847 9.7304672,8.9888429 9.8554173,8.9233828 9.965047,8.8659489 10.265721,8.8654021 10.39827,8.9223955 c 0.125384,0.053912 0.324946,0.2581498 0.370499,0.3791786 0.04191,0.1113667 0.04372,0.3725514 0.0033,0.4788408 -0.0456,0.1199321 -0.257936,0.3414351 -0.373809,0.3899441 -0.152039,0.06365 -0.4502082,0.05476 -0.5651092,-0.01684 z"
   id="path19"
   inkscape:connector-curvature="0" /><path
   style="opacity:1;fill:#00ccff;stroke-width:0.03177966"
   d="m 7.9108177,15.035551 c -0.230945,-0.0775 -0.4452417,-0.383176 -0.4452417,-0.635102 0,-0.111816 0.078547,-0.321801 0.1632054,-0.436307 0.085706,-0.115925 0.3515783,-0.255278 0.4865725,-0.255032 0.1637626,2.99e-4 0.331753,0.06213 0.4493614,0.165391 0.3451447,0.303041 0.3201851,0.848252 -0.050049,1.093262 -0.1437286,0.09511 -0.4274873,0.12697 -0.6038483,0.06779 z"
   id="path21"
   inkscape:connector-curvature="0" /><path
   style="opacity:1;fill:#00ffff;stroke-width:0.03177966;fill-opacity:1"
   d="m 9.9319407,19.892556 c -0.1574866,-0.05826 -0.3891898,-0.284485 -0.4356909,-0.425385 -0.1262677,-0.382595 0.1598056,-0.84306 0.5511742,-0.887173 0.555369,-0.0626 0.956042,0.551626 0.662143,1.015056 -0.167536,0.264177 -0.511748,0.395864 -0.7776263,0.297502 z"
   id="path23"
   inkscape:connector-curvature="0" /><path
   style="opacity:1;fill:#00ffff;fill-opacity:1;stroke-width:0.06355932"
   d="M 9.6886358,19.702494 C 9.5207475,19.534606 9.4725341,19.433925 9.4725341,19.251223 c 0,-0.332806 0.3345668,-0.667373 0.6673729,-0.667373 0.332806,0 0.667373,0.334567 0.667373,0.667373 0,0.332806 -0.334567,0.667373 -0.667373,0.667373 -0.182702,0 -0.283383,-0.04821 -0.4512712,-0.216102 z"
   id="path830"
   inkscape:connector-curvature="0" /><path
   style="opacity:1;fill:#00ccff;fill-opacity:1;stroke-width:0.06355932"
   d="M 9.6886358,19.702494 C 9.5207475,19.534606 9.4725341,19.433925 9.4725341,19.251223 c 0,-0.332806 0.3345668,-0.667373 0.6673729,-0.667373 0.332806,0 0.667373,0.334567 0.667373,0.667373 0,0.332806 -0.334567,0.667373 -0.667373,0.667373 -0.182702,0 -0.283383,-0.04821 -0.4512712,-0.216102 z"
   id="path832"
   inkscape:connector-curvature="0" /><path
   style="opacity:1;fill:#00ccff;fill-opacity:1;stroke-width:0.06355932"
   d="m 14.673339,19.809775 c -0.09348,-0.05799 -0.200734,-0.172983 -0.238348,-0.255537 -0.04331,-0.09505 -0.06839,-0.76675 -0.06839,-1.831429 0,-0.924732 -0.02118,-1.681332 -0.04707,-1.681332 -0.02589,0 -0.594947,0.547332 -1.264569,1.216294 -1.194079,1.192902 -1.222628,1.216295 -1.484351,1.216295 -0.377678,0 -0.653545,-0.275873 -0.653545,-0.65356 0,-0.262092 0.02263,-0.289518 1.263368,-1.531425 L 13.4438,15.024528 h -1.749033 c -1.8460852,0 -1.9002921,-0.0078 -2.1427838,-0.307464 -0.1715911,-0.212063 -0.029131,-0.757013 0.2348269,-0.898279 0.075229,-0.04026 0.7842369,-0.06544 1.8425629,-0.06544 0.946154,0 1.72028,-0.02173 1.72028,-0.0483 0,-0.02656 -0.543423,-0.591155 -1.207607,-1.254649 -1.298224,-1.296876 -1.378806,-1.419022 -1.184293,-1.795169 0.121389,-0.23474 0.489779,-0.420685 0.729247,-0.368089 0.114713,0.0252 0.587688,0.451859 1.378809,1.243802 0.662309,0.662999 1.225933,1.205452 1.252496,1.205452 0.02656,0 0.0483,-0.788746 0.0483,-1.75277 V 9.2308513 l 0.185789,-0.1857888 c 0.148915,-0.1489154 0.241164,-0.1857888 0.464803,-0.1857888 0.228311,0 0.312939,0.035387 0.465694,0.1947262 l 0.18668,0.1947262 0.03178,1.7446449 0.03178,1.744646 1.144068,-1.14917 c 0.629237,-0.632043 1.226197,-1.192672 1.326577,-1.245844 0.480361,-0.254445 1.038992,0.233497 0.900241,0.786324 -0.02655,0.10577 -0.500399,0.633721 -1.223835,1.363558 l -1.180517,1.190962 1.730726,0.01886 1.730725,0.01886 0.185372,0.20757 c 0.258892,0.289896 0.258727,0.650463 -4.45e-4,0.909607 l -0.18576,0.185789 h -1.720992 c -0.946544,0 -1.72099,0.02118 -1.72099,0.04706 0,0.02588 0.532218,0.579829 1.182707,1.230995 1.1222,1.123367 1.18433,1.198336 1.214431,1.465402 0.0268,0.23777 0.0057,0.312353 -0.135696,0.480434 -0.187566,0.22291 -0.44659,0.306397 -0.677307,0.218303 -0.08473,-0.03235 -0.681633,-0.591265 -1.326456,-1.242031 -0.644823,-0.650767 -1.194112,-1.183212 -1.220642,-1.183212 -0.02653,0 -0.05668,0.788933 -0.067,1.753186 l -0.01876,1.753184 -0.207571,0.185375 c -0.239112,0.213543 -0.523366,0.241134 -0.788658,0.07655 z"
   id="path834"
   inkscape:connector-curvature="0" /></svg>