<?xml version="1.0" encoding="UTF-8" standalone="no"?>
<!-- Generator: Adobe Illustrator 15.1.0, SVG Export Plug-In . SVG Version: 6.00 Build 0)  -->

<svg
   xmlns:dc="http://purl.org/dc/elements/1.1/"
   xmlns:cc="http://creativecommons.org/ns#"
   xmlns:rdf="http://www.w3.org/1999/02/22-rdf-syntax-ns#"
   xmlns:svg="http://www.w3.org/2000/svg"
   xmlns="http://www.w3.org/2000/svg"
   xmlns:sodipodi="http://sodipodi.sourceforge.net/DTD/sodipodi-0.dtd"
   xmlns:inkscape="http://www.inkscape.org/namespaces/inkscape"
   version="1.1"
   id="Layer_1"
   x="0px"
   y="0px"
   width="55"
   height="55"
   viewBox="0 0 55 55"
   enable-background="new 0 0 100 100"
   xml:space="preserve"
   inkscape:version="0.48.4 r9939"
   sodipodi:docname="Umbrella.svg"><metadata
     id="metadata3002"><rdf:RDF><cc:Work
         rdf:about=""><dc:format>image/svg+xml</dc:format><dc:type
           rdf:resource="http://purl.org/dc/dcmitype/StillImage" /></cc:Work></rdf:RDF></metadata><defs
     id="defs3000" /><sodipodi:namedview
     pagecolor="#ffffff"
     bordercolor="#666666"
     borderopacity="1"
     objecttolerance="10"
     gridtolerance="10"
     guidetolerance="10"
     inkscape:pageopacity="0"
     inkscape:pageshadow="2"
     inkscape:window-width="640"
     inkscape:window-height="480"
     id="namedview2998"
     showgrid="false"
     inkscape:zoom="2.36"
     inkscape:cx="-0.42372881"
     inkscape:cy="50"
     inkscape:window-x="0"
     inkscape:window-y="336"
     inkscape:window-maximized="0"
     inkscape:current-layer="Layer_1" /><path
     clip-rule="evenodd"
     d="m 43.999,24.001 c -3.037,0 -5.5,1.343 -5.5,2.999 0,-1.656 -2.461,-2.999 -5.5,-2.999 -1.863,0 -3.504,0.509 -4.498,1.282 v 8.716 h 1 v 4 c 0,1.104 0.895,2 2,2 1.104,0 1.998,-0.896 1.998,-2 0,-1.104 0.896,-2 2,-2 1.105,0 2,0.896 2,2 0,3.313 -2.686,5.999 -5.998,5.999 -3.314,0 -6,-2.686 -6,-5.999 v -4 h 1 v -8.716 c -0.994,-0.773 -2.635,-1.282 -4.5,-1.282 -3.037,0 -5.498,1.343 -5.498,2.999 l 0,0 c 0,-1.656 -2.463,-2.999 -5.5,-2.999 -3.037,0 -5.5,1.343 -5.5,2.999 0,-7.179 9.85,-15.998 21.999,-15.998 12.149,0 21.995,8.819 21.995,15.998 0,-1.656 -2.461,-2.999 -5.498,-2.999 z"
     id="path2996"
     inkscape:connector-curvature="0"
     style="fill-rule:evenodd" /></svg>