<?xml version="1.0" encoding="UTF-8" standalone="no"?>
<!-- Generator: Adobe Illustrator 22.0.1, SVG Export Plug-In . SVG Version: 6.00 Build 0)  -->

<svg
   xmlns:dc="http://purl.org/dc/elements/1.1/"
   xmlns:cc="http://creativecommons.org/ns#"
   xmlns:rdf="http://www.w3.org/1999/02/22-rdf-syntax-ns#"
   xmlns:svg="http://www.w3.org/2000/svg"
   xmlns="http://www.w3.org/2000/svg"
   xmlns:sodipodi="http://sodipodi.sourceforge.net/DTD/sodipodi-0.dtd"
   xmlns:inkscape="http://www.inkscape.org/namespaces/inkscape"
   version="1.1"
   id="Layer_1"
   x="0px"
   y="0px"
   viewBox="0 0 30 30"
   style="enable-background:new 0 0 30 30;"
   xml:space="preserve"
   sodipodi:docname="wimdy.svg"
   inkscape:version="0.92.5 (2060ec1f9f, 2020-04-08)"><metadata
   id="metadata17"><rdf:RDF><cc:Work
       rdf:about=""><dc:format>image/svg+xml</dc:format><dc:type
         rdf:resource="http://purl.org/dc/dcmitype/StillImage" /><dc:title></dc:title></cc:Work></rdf:RDF></metadata><defs
   id="defs15" /><sodipodi:namedview
   pagecolor="#ffffff"
   bordercolor="#666666"
   borderopacity="1"
   objecttolerance="10"
   gridtolerance="10"
   guidetolerance="10"
   inkscape:pageopacity="0"
   inkscape:pageshadow="2"
   inkscape:window-width="1918"
   inkscape:window-height="1014"
   id="namedview13"
   showgrid="true"
   inkscape:zoom="13.95"
   inkscape:cx="11.12877"
   inkscape:cy="19.831003"
   inkscape:window-x="1920"
   inkscape:window-y="0"
   inkscape:window-maximized="1"
   inkscape:current-layer="Layer_1"><inkscape:grid
     type="xygrid"
     id="grid49"
     dotted="false"
     snapvisiblegridlinesonly="true" /></sodipodi:namedview>
<path
   d="m 4,19.28 c 0,0.24 0.09,0.45 0.28,0.62 0.16,0.19 0.37,0.28 0.63,0.28 H 19.6 c 0.29,0 0.53,0.1 0.73,0.3 0.2,0.2 0.3,0.45 0.3,0.74 0,0.29 -0.1,0.53 -0.3,0.72 -0.2,0.19 -0.44,0.29 -0.74,0.29 -0.29,0 -0.54,-0.1 -0.73,-0.29 -0.16,-0.18 -0.36,-0.26 -0.6,-0.26 -0.25,0 -0.46,0.09 -0.64,0.26 -0.18,0.17 -0.27,0.38 -0.27,0.61 0,0.25 0.09,0.46 0.28,0.63 0.56,0.55 1.22,0.83 1.96,0.83 0.78,0 1.45,-0.27 2.01,-0.81 0.56,-0.54 0.83,-1.19 0.83,-1.97 0,-0.78 -0.28,-1.44 -0.84,-2 -0.56,-0.56 -1.23,-0.84 -2,-0.84 H 4.91 c -0.25,0 -0.46,0.09 -0.64,0.26 C 4.09,18.82 4,19.03 4,19.28 Z M 4,16 c -2.0666667,10.873333 -1.0333333,5.436667 0,0 z"
   id="path10"
   inkscape:connector-curvature="0"
   sodipodi:nodetypes="scsssssscssscsssssssscc" />
<path
   inkscape:connector-curvature="0"
   d="m 4,13.28 c 0,0.23 0.09,0.43 0.28,0.61 0.17,0.18 0.38,0.26 0.63,0.26 h 20.04 c 0.78,0 1.45,-0.27 2.01,-0.82 0.56,-0.54 0.84,-1.2 0.84,-1.97 0,-0.77 -0.28,-1.44 -0.84,-1.99 -0.56,-0.55 -1.23,-0.83 -2.01,-0.83 -0.77,0 -1.42,0.27 -1.95,0.8 -0.18,0.16 -0.27,0.38 -0.27,0.67 0,0.26 0.09,0.47 0.26,0.63 0.17,0.16 0.38,0.24 0.63,0.24 0.24,0 0.45,-0.08 0.63,-0.24 0.19,-0.21 0.42,-0.31 0.7,-0.31 0.29,0 0.53,0.1 0.73,0.3 0.2,0.2 0.3,0.44 0.3,0.73 0,0.29 -0.1,0.53 -0.3,0.72 -0.2,0.19 -0.44,0.29 -0.73,0.29 H 4.91 c -0.25,0 -0.46,0.09 -0.64,0.26 C 4.09,12.82 4,13.03 4,13.28 Z"
   id="path10-3"
   sodipodi:nodetypes="scsscssscssscsssssscs" /><path
   d="M 4,10.28 C 4,10.04 4.09,9.83 4.28,9.66 4.44,9.47 4.65,9.38 4.91,9.38 H 19.6 c 0.29,0 0.53,-0.1 0.73,-0.3 0.2,-0.2 0.3,-0.45 0.3,-0.74 0,-0.29 -0.1,-0.53 -0.3,-0.72 -0.2,-0.19 -0.44,-0.29 -0.74,-0.29 -0.29,0 -0.54,0.1 -0.73,0.29 C 18.7,7.8 18.5,7.88 18.26,7.88 18.01,7.88 17.8,7.79 17.62,7.62 17.44,7.45 17.35,7.24 17.35,7.01 17.35,6.76 17.44,6.55 17.629999,6.38 18.19,5.83 18.85,5.55 19.589999,5.55 c 0.780001,0 1.45,0.27 2.01,0.81 0.56,0.54 0.83,1.19 0.83,1.97 0,0.78 -0.28,1.44 -0.84,2 -0.56,0.56 -1.23,0.84 -2,0.84 H 4.91 C 4.66,11.17 4.45,11.08 4.27,10.91 4.09,10.74 4,10.53 4,10.28 Z m 0,3.28 C 1.9333332,2.6866668 2.9666666,8.123333 4,13.56 Z"
   id="path10-6"
   inkscape:connector-curvature="0"
   sodipodi:nodetypes="scsssssscssscsssssssscc" /><path
   inkscape:connector-curvature="0"
   d="m 4,16.28 c 0,-0.23 0.09,-0.43 0.28,-0.61 0.17,-0.18 0.38,-0.26 0.63,-0.26 h 20.04 c 0.78,0 1.45,0.27 2.01,0.82 0.56,0.54 0.84,1.2 0.84,1.97 0,0.77 -0.28,1.44 -0.84,1.99 -0.56,0.55 -1.23,0.83 -2.01,0.83 -0.77,0 -1.42,-0.27 -1.95,-0.8 -0.18,-0.16 -0.27,-0.38 -0.27,-0.67 0,-0.26 0.09,-0.47 0.26,-0.63 0.17,-0.16 0.38,-0.24 0.63,-0.24 0.24,0 0.45,0.08 0.63,0.24 0.19,0.21 0.42,0.31 0.7,0.31 0.29,0 0.53,-0.1 0.73,-0.3 0.2,-0.2 0.3,-0.44 0.3,-0.73 0,-0.29 -0.1,-0.53 -0.3,-0.72 -0.2,-0.19 -0.44,-0.29 -0.73,-0.29 H 4.91 C 4.66,17.19 4.45,17.1 4.27,16.93 4.09,16.74 4,16.53 4,16.28 Z"
   id="path10-3-7"
   sodipodi:nodetypes="scsscssscssscsssssscs" /></svg>